# xmcd
# 
# Track frame offsets:
#     150
#     23972
#     43988
#     70484
#     109071
#     146692
#     193313
#     215412
#     240027
#     259112
# 
# Disc length: 4143
# 
# Revision: 0
# Processed by: cddbd v1.5.2PL0 Copyright (c) Steve Scherf et al.
# Submitted via: fre:ac v1.1beta1pre4
# 
DISCID=96102d0a
DTITLE=Tedeschi Trucks Band - 20170730 Red Rocks D2
DYEAR=2017
DGENRE=Blues
TTITLE0=Down Along The Cove
TTITLE1=Dark End Of The Street
TTITLE2=Delta Lady
TTITLE3=I Pity The Fool
TTITLE4=The Storm
TTITLE5=Whipping Post
TTITLE6=A Song For You
TTITLE7=Statesboro Blues
TTITLE8=Will The Circle Be Unbroken
TTITLE9=Bound For Glory
EXTD=Live From The Swamp Vol. 4
EXTT0=
EXTT1=
EXTT2=
EXTT3=
EXTT4=
EXTT5=
EXTT6=
EXTT7=
EXTT8=
EXTT9=
PLAYORDER=
